# File created by Blade
# Date/Time:  Thu Jan 22 19:34:22 2015
#---------------------------------------------------------
:version 1.10
:name HOM
:units
  mass 1.0
  length 1.000000
  angle deg
:documentation
     Acclaim Skeleton File
:root
   axis xyz
   order TX TY TZ RX RY RZ
   position 0.000000 0.000000 0.000000
   orientation 0 0 0
:bonedata
   begin
      id 1
      name RightUpLeg_dum
      direction -1.000000 0.000000 0.000000
      length 4.478084
      axis 0.0 0.0 0.0 xyz
   end
   begin
      id 2
      name LeftUpLeg_dum
      direction 1.000000 0.000000 0.000000
      length 4.478084
      axis 0.0 0.0 0.0 xyz
   end
   begin
      id 3
      name Spine_dum
      direction 0.000000 1.000000 0.000000
      length 6.068208
      axis 0.0 0.0 0.0 xyz
   end
   begin
      id 4
      name RightUpLeg
      direction 0.000000 -1.000000 0.000000
      length 16.405774
      axis 0.0 0.0 0.0 xyz
      dof rx ry rz
   end
   begin
      id 5
      name RightLeg
      direction 0.000000 -1.000000 0.000000
      length 14.644143
      axis 0.0 0.0 0.0 xyz
      dof rx ry rz
   end
   begin
      id 6
      name RightFoot
      direction 0.000000 -0.258819 0.965926
      length 5.806150
      axis 15.0 0.0 0.0 xyz
      dof rx ry rz
   end
   begin
      id 7
      name RightToeBase
      direction 0.000000 0.000000 1.000000
      length 2.952750
      axis 0.0 0.0 0.0 xyz
      dof rx ry rz
   end
   begin
      id 8
      name LeftUpLeg
      direction 0.000000 -1.000000 0.000000
      length 16.405774
      axis 0.0 0.0 0.0 xyz
      dof rx ry rz
   end
   begin
      id 9
      name LeftLeg
      direction 0.000000 -1.000000 0.000000
      length 14.644143
      axis 0.0 0.0 0.0 xyz
      dof rx ry rz
   end
   begin
      id 10
      name LeftFoot
      direction 0.000000 -0.258819 0.965926
      length 5.806150
      axis 15.0 0.0 0.0 xyz
      dof rx ry rz
   end
   begin
      id 11
      name LeftToeBase
      direction 0.000000 0.000000 1.000000
      length 2.952750
      axis 0.0 0.0 0.0 xyz
      dof rx ry rz
   end
   begin
      id 12
      name Spine
      direction 0.000000 1.000000 0.000000
      length 0.000000
      axis 0.0 0.0 0.0 xyz
      dof rx ry rz
   end
   begin
      id 13
      name Spine_dum1
      direction 0.000000 1.000000 0.000000
      length 10.013923
      axis 0.0 0.0 0.0 xyz
   end
   begin
      id 14
      name Spine_dum2
      direction 0.000000 1.000000 0.000000
      length 10.013923
      axis 0.0 0.0 0.0 xyz
   end
   begin
      id 15
      name Spine_dum3
      direction 0.000000 1.000000 0.000000
      length 15.777476
      axis 0.0 0.0 0.0 xyz
   end
   begin
      id 16
      name RightShoulder
      direction -1.000000 0.000000 0.000000
      length 7.190220
      axis 0.0 0.0 90.0 xyz
      dof rx ry rz
   end
   begin
      id 17
      name RightArm
      direction -1.000000 0.000000 0.000000
      length 10.177469
      axis 0.0 0.0 90.0 xyz
      dof rx ry rz
   end
   begin
      id 18
      name RightForeArm
      direction -1.000000 0.000000 0.000000
      length 8.392114
      axis 0.0 0.0 90.0 xyz
      dof ry rz rx
   end
   begin
      id 19
      name RightHand
      direction -1.000000 0.000000 0.000000
      length 0.000000
      axis 0.0 0.0 90.0 xyz
      dof rx ry rz
   end
   begin
      id 20
      name RightHand_dum1
      direction -1.000000 0.000000 0.000000
      length 3.937000
      axis 0.0 0.0 90.0 xyz
   end
   begin
      id 21
      name RightHand_dum2
      direction 0.000000 0.000000 0.000000
      length 0.000000
      axis 0.0 0.0 90.0 xyz
   end
   begin
      id 22
      name RightHandThumb1
      direction 0.000000 0.000000 1.000000
      length 3.937000
      axis 0.0 0.0 90.0 xyz
      dof rx rz ry
   end
   begin
      id 23
      name LeftShoulder
      direction 1.000000 0.000000 0.000000
      length 7.190220
      axis 0.0 0.0 -90.0 xyz
      dof rx ry rz
   end
   begin
      id 24
      name LeftArm
      direction 1.000000 0.000000 0.000000
      length 10.177469
      axis 0.0 0.0 -90.0 xyz
      dof rx ry rz
   end
   begin
      id 25
      name LeftForeArm
      direction 1.000000 0.000000 0.000000
      length 8.392114
      axis 0.0 0.0 -90.0 xyz
      dof ry rz rx
   end
   begin
      id 26
      name LeftHand
      direction 1.000000 0.000000 0.000000
      length 0.000000
      axis 0.0 0.0 -90.0 xyz
      dof rx ry rz
   end
   begin
      id 27
      name LeftHand_dum1
      direction 1.000000 0.000000 0.000000
      length 3.937000
      axis 0.0 0.0 -90.0 xyz
   end
   begin
      id 28
      name LeftHand_dum2
      direction 0.000000 0.000000 0.000000
      length 0.000000
      axis 0.0 0.0 -90.0 xyz
   end
   begin
      id 29
      name LeftHandThumb1
      direction 0.000000 0.000000 1.000000
      length 3.937000
      axis 0.0 0.0 -90.0 xyz
      dof rx rz ry
   end
   begin
      id 30
      name Head
      direction 0.000000 1.000000 0.000000
      length 4.527550
      axis 0.0 0.0 0.0 xyz
      dof rx ry rz
   end
:hierarchy
   begin
      root RightUpLeg_dum LeftUpLeg_dum Spine_dum
      RightUpLeg_dum RightUpLeg
      LeftUpLeg_dum LeftUpLeg
      Spine_dum Spine
      RightUpLeg RightLeg
      RightLeg RightFoot
      RightFoot RightToeBase
      LeftUpLeg LeftLeg
      LeftLeg LeftFoot
      LeftFoot LeftToeBase
      Spine Spine_dum1 Spine_dum2 Spine_dum3
      Spine_dum1 RightShoulder
      Spine_dum2 LeftShoulder
      Spine_dum3 Head
      RightShoulder RightArm
      RightArm RightForeArm
      RightForeArm RightHand
      RightHand RightHand_dum1 RightHand_dum2
      RightHand_dum2 RightHandThumb1
      LeftShoulder LeftArm
      LeftArm LeftForeArm
      LeftForeArm LeftHand
      LeftHand LeftHand_dum1 LeftHand_dum2
      LeftHand_dum2 LeftHandThumb1
   end

# File created by Blade
# Date/Time:  Thu Jan 22 19:34:15 2015
# Frame Rate: 120.000 fps
#------------------------------------------------------
:FULLY-SPECIFIED
:DEGREES
259
root -1.509687 32.961212 -1.774931 8.244780 -5.672749 3.552037
RightUpLeg -6.906109 -3.084255 -8.014429
RightLeg 7.412655 -0.000000 -0.000000
RightFoot -15.246010 -0.119442 8.123410
RightToeBase 7.124532 -0.000000 -0.000000
LeftUpLeg -4.616980 2.025248 -2.487793
LeftLeg 8.014292 -0.000000 -0.000000
LeftFoot -16.708761 6.674971 -16.505540
LeftToeBase 9.066610 -0.000000 -0.000000
Spine -7.476232 -2.300735 -2.300875
RightShoulder -20.191316 -16.130562 -20.589580
RightArm 20.555872 18.588118 45.845365
RightForeArm -14.534524 -0.000000 28.882846
RightHand 9.487289 -0.000000 6.429854
RightHandThumb1 -24.326973 -0.000000 -32.862282
LeftShoulder -23.632594 6.507809 28.236270
LeftArm 14.901754 -23.332832 -41.043775
LeftForeArm 19.166031 -0.000000 4.792353
LeftHand 0.414905 -0.000000 -12.694133
LeftHandThumb1 -26.253704 0.000000 33.147579
Head 6.341266 -3.419645 1.308027
260
root -1.453872 32.958783 -1.787304 8.234523 -5.929143 3.577985
RightUpLeg -7.278226 -3.017839 -8.155263
RightLeg 7.991337 -0.000000 -0.000000
RightFoot -15.382306 0.060034 8.205040
RightToeBase 6.953859 -0.000000 -0.000000
LeftUpLeg -4.612714 2.194273 -2.645047
LeftLeg 8.007024 -0.000000 -0.000000
LeftFoot -16.735068 6.774940 -16.418938
LeftToeBase 9.051621 -0.000000 -0.000000
Spine -7.380573 -2.262889 -2.435744
RightShoulder -20.312860 -16.325821 -20.359911
RightArm 20.705229 18.126658 46.096809
RightForeArm -14.554935 -0.000000 29.563615
RightHand 9.318771 0.000000 6.311637
RightHandThumb1 -24.326973 -0.000000 -32.862282
LeftShoulder -23.512874 6.372855 28.285439
LeftArm 14.594603 -23.146771 -41.097802
LeftForeArm 18.999664 -0.000000 4.915124
LeftHand 0.318467 -0.000000 -12.920160
LeftHandThumb1 -26.253704 0.000000 33.147579
Head 6.418219 -3.696288 1.464754
261
root -1.401121 32.958522 -1.812998 8.264857 -6.135946 3.606860
RightUpLeg -7.725249 -3.011284 -8.287479
RightLeg 8.619120 -0.000000 -0.000000
RightFoot -15.511381 0.285559 8.345395
RightToeBase 6.903453 -0.000000 -0.000000
LeftUpLeg -4.709428 2.317431 -2.795512
LeftLeg 8.063418 -0.000000 -0.000000
LeftFoot -16.773366 6.865950 -16.373258
LeftToeBase 9.046777 -0.000000 -0.000000
Spine -7.285383 -2.377655 -2.585173
RightShoulder -20.296710 -16.376927 -20.148206
RightArm 20.691240 17.541877 46.237416
RightForeArm -14.480111 -0.000000 30.316968
RightHand 9.259536 0.000000 6.347655
RightHandThumb1 -24.326973 -0.000000 -32.862282
LeftShoulder -23.551800 6.429264 28.272953
LeftArm 14.509642 -23.142617 -41.280859
LeftForeArm 18.843241 -0.000000 5.028912
LeftHand 0.257348 0.000000 -13.252258
LeftHandThumb1 -26.253704 0.000000 33.147579
Head 6.439364 -3.867488 1.692195
262
root -1.341418 32.956683 -1.834925 8.249673 -6.412349 3.656958
RightUpLeg -8.197571 -2.992169 -8.461627
RightLeg 9.356973 -0.000000 -0.000000
RightFoot -15.654540 0.557021 8.435278
RightToeBase 6.717757 -0.000000 -0.000000
LeftUpLeg -4.732840 2.498488 -2.986602
LeftLeg 8.075393 -0.000000 -0.000000
LeftFoot -16.783024 6.980853 -16.285088
LeftToeBase 9.027442 -0.000000 -0.000000
Spine -7.157515 -2.398633 -2.754703
RightShoulder -20.299235 -16.544210 -19.967773
RightArm 20.766813 17.154868 46.578857
RightForeArm -14.712107 -0.000000 31.103544
RightHand 9.054613 -0.000000 6.276677
RightHandThumb1 -24.326973 -0.000000 -32.862282
LeftShoulder -23.517147 6.449452 28.261028
LeftArm 14.355309 -23.204304 -41.481668
LeftForeArm 18.748156 -0.000000 5.174149
LeftHand 0.050007 -0.000000 -13.349782
LeftHandThumb1 -26.253704 0.000000 33.147579
Head 6.502419 -4.088763 1.876967
263
root -1.289012 32.954180 -1.858920 8.251952 -6.710219 3.680022
RightUpLeg -8.693399 -2.889703 -8.596807
RightLeg 10.088194 -0.000000 -0.000000
RightFoot -15.805290 0.767766 8.547470
RightToeBase 6.676244 -0.000000 -0.000000
LeftUpLeg -4.762551 2.698004 -3.139844
LeftLeg 8.074290 -0.000000 -0.000000
LeftFoot -16.828594 7.070430 -16.284670
LeftToeBase 9.126888 -0.000000 -0.000000
Spine -7.031966 -2.397738 -2.929798
RightShoulder -20.333098 -16.678742 -19.749369
RightArm 20.819164 16.713084 46.887343
RightForeArm -14.695407 0.000000 31.907169
RightHand 9.051945 -0.000000 6.349582
RightHandThumb1 -24.326973 -0.000000 -32.862282
LeftShoulder -23.484535 6.418572 28.283239
LeftArm 14.174012 -23.109829 -41.624045
LeftForeArm 18.461705 -0.000000 5.261543
LeftHand 0.043237 -0.000000 -13.583765
LeftHandThumb1 -26.253704 0.000000 33.147579
Head 6.524399 -4.284054 2.121534
